<!DOCTYPE svg PUBLIC "-//W3C//DTD SVG 20010904//EN" "http://www.w3.org/TR/2001/REC-SVG-20010904/DTD/svg10.dtd">
<svg version="1.0" xmlns="http://www.w3.org/2000/svg" width="1200px" height="1200px" viewBox="0 0 12000 12000" preserveAspectRatio="xMidYMid meet">
<g id="layer101" fill="#010101" stroke="none">
<path d="M0 6000 l0 -6000 6000 0 6000 0 0 6000 0 6000 -6000 0 -6000 0 0 -6000z"/>
</g>
<g id="layer102" fill="#ffde59" stroke="none">
<path d="M0 6000 l0 -6000 6000 0 6000 0 0 6000 0 6000 -6000 0 -6000 0 0 -6000z m3330 3420 l0 -320 355 0 355 0 0 -120 0 -120 -355 0 -355 0 0 -225 0 -225 395 0 396 0 -3 -117 -3 -118 -525 0 -525 0 -3 770 c-1 424 0 776 3 783 3 9 40 12 135 12 l130 0 0 -320z m2062 -262 l3 -583 56 115 c32 63 143 289 248 503 l190 387 86 0 86 0 195 -397 c107 -219 216 -442 242 -495 25 -54 50 -98 54 -98 4 0 8 259 8 575 l0 575 120 0 120 0 0 -785 0 -786 -152 3 -153 3 -260 518 -259 518 -261 -518 -260 -518 -155 0 -155 0 -3 770 c-1 424 0 776 3 783 3 9 38 12 125 12 l120 0 2 -582z m2533 407 l72 -170 399 0 398 0 72 170 72 170 142 3 c112 2 141 0 137 -10 -5 -13 -61 -141 -355 -813 -77 -176 -174 -399 -216 -495 -41 -96 -84 -191 -93 -210 l-18 -35 -134 0 -134 0 -179 405 c-362 818 -508 1149 -508 1155 0 3 62 4 137 3 l136 -3 72 -170z"/>
</g>
<g id="layer103" fill="#ffffff" stroke="none">
<path d="M0 6000 l0 -6000 6000 0 6000 0 0 6000 0 6000 -6000 0 -6000 0 0 -6000z m3330 3420 l0 -320 355 0 355 0 0 -120 0 -120 -355 0 -355 0 0 -225 0 -225 395 0 396 0 -3 -117 -3 -118 -525 0 -525 0 -3 770 c-1 424 0 776 3 783 3 9 40 12 135 12 l130 0 0 -320z m2062 -262 l3 -583 56 115 c32 63 143 289 248 503 l190 387 86 0 86 0 195 -397 c107 -219 216 -442 242 -495 25 -54 50 -98 54 -98 4 0 8 259 8 575 l0 575 120 0 120 0 0 -785 0 -786 -152 3 -153 3 -260 518 -259 518 -261 -518 -260 -518 -155 0 -155 0 -3 770 c-1 424 0 776 3 783 3 9 38 12 125 12 l120 0 2 -582z m2533 407 l72 -170 399 0 398 0 72 170 72 170 142 3 c112 2 141 0 137 -10 -5 -13 -61 -141 -355 -813 -77 -176 -174 -399 -216 -495 -41 -96 -84 -191 -93 -210 l-18 -35 -134 0 -134 0 -179 405 c-362 818 -508 1149 -508 1155 0 3 62 4 137 3 l136 -3 72 -170z m-3540 -2104 c49 -23 89 -64 109 -113 14 -33 16 -222 16 -1726 l0 -1688 -22 -44 c-32 -62 -94 -107 -160 -115 -29 -3 -417 -5 -863 -3 l-810 3 -47 28 c-29 17 -57 44 -73 71 l-25 43 0 1707 c0 1876 -5 1739 59 1800 59 56 36 55 941 55 792 1 837 0 875 -18z m2450 -7 c59 -30 102 -99 110 -176 3 -35 5 -1026 3 -2203 l-3 -2140 -28 -48 c-15 -26 -47 -60 -69 -75 l-42 -27 -850 -3 -850 -2 -52 25 c-34 17 -61 40 -80 68 l-29 42 -3 2204 -2 2204 21 44 c22 46 65 84 114 101 20 7 302 10 875 9 833 -2 846 -2 885 -23z m2423 11 c51 -22 110 -82 122 -125 6 -22 10 -984 10 -2695 0 -2566 -1 -2661 -19 -2701 -22 -48 -82 -101 -131 -114 -21 -6 -356 -10 -861 -10 l-827 0 -53 28 c-39 20 -62 41 -84 77 l-30 48 0 2676 0 2676 22 40 c11 22 32 51 46 63 55 52 41 51 935 52 730 0 837 -2 870 -15z"/>
<path d="M8114 9118 c7 -18 47 -112 88 -208 41 -96 101 -237 133 -313 32 -75 59 -136 61 -134 3 2 74 170 250 585 l43 102 -295 0 -294 0 14 -32z"/>
<path d="M2915 7058 c-3 -7 -4 -656 -3 -1443 l3 -1430 593 -3 592 -2 0 1445 0 1445 -590 0 c-463 0 -592 -3 -595 -12z"/>
<path d="M5350 5130 l0 -1940 595 0 595 0 -2 1938 -3 1937 -592 3 -593 2 0 -1940z"/>
<path d="M7800 4650 l0 -2420 590 0 590 0 0 2420 0 2420 -590 0 -590 0 0 -2420z"/>
</g>


</svg>