<!DOCTYPE svg PUBLIC "-//W3C//DTD SVG 20010904//EN" "http://www.w3.org/TR/2001/REC-SVG-20010904/DTD/svg10.dtd">
<svg version="1.0" xmlns="http://www.w3.org/2000/svg" width="1200px" height="1200px" viewBox="0 0 12000 12000" preserveAspectRatio="xMidYMid meet">
<g id="layer101" fill="#030303" stroke="none">
<path d="M0 6000 l0 -6000 6000 0 6000 0 0 6000 0 6000 -6000 0 -6000 0 0 -6000z"/>
</g>
<g id="layer102" fill="#ffde5a" stroke="none">
<path d="M0 6000 l0 -6000 6000 0 6000 0 0 6000 0 6000 -6000 0 -6000 0 0 -6000z m8493 74 c75 -38 109 -113 87 -193 -16 -59 -71 -102 -171 -134 -104 -33 -147 -59 -155 -92 -21 -82 99 -108 232 -50 l51 23 21 -44 22 -44 -23 -15 c-12 -8 -42 -21 -67 -30 -215 -76 -416 52 -342 217 24 55 59 78 183 118 131 42 172 95 116 148 -50 47 -161 35 -260 -27 l-47 -31 -22 45 c-22 44 -22 45 -2 60 35 28 116 66 158 75 64 13 164 1 219 -26z m620 0 c75 -39 111 -117 88 -194 -17 -56 -74 -102 -161 -130 -132 -41 -170 -68 -170 -118 0 -61 125 -77 231 -29 l56 25 21 -44 22 -44 -23 -15 c-72 -47 -196 -65 -280 -41 -124 36 -175 129 -128 232 23 51 61 75 182 114 103 34 139 60 139 100 0 91 -166 102 -287 19 l-43 -30 -22 46 c-22 44 -22 45 -2 60 35 28 116 66 158 75 64 13 164 1 219 -26z m1845 4 c119 -57 137 -214 33 -284 -20 -13 -77 -37 -125 -54 -107 -36 -131 -51 -140 -85 -21 -83 101 -109 231 -50 l53 24 20 -46 c23 -53 25 -51 -60 -85 -82 -32 -198 -31 -264 2 -78 39 -113 108 -96 186 15 67 68 104 206 148 87 28 124 57 124 97 0 90 -144 102 -274 24 l-56 -34 -21 41 c-19 38 -20 41 -3 59 23 26 110 67 164 79 62 12 157 3 208 -22z m-8068 -103 l0 -125 140 0 140 0 0 -50 0 -50 -140 0 -140 0 0 -90 0 -90 155 0 155 0 0 -45 0 -45 -210 0 -210 0 0 310 0 310 55 0 55 0 0 -125z m570 -185 l0 -310 -50 0 -50 0 0 310 0 310 50 0 50 0 0 -310z m342 93 l3 -217 160 217 160 216 53 1 52 0 0 -310 0 -310 -50 0 -50 0 -2 221 -3 220 -164 -220 -163 -221 -54 0 -54 0 0 310 0 310 55 0 55 0 2 -217z m1077 182 c137 -76 193 -224 145 -385 -21 -72 -97 -149 -177 -178 -51 -19 -78 -22 -222 -22 l-165 0 0 311 0 311 183 -4 c180 -3 182 -3 236 -33z m731 -185 c0 -121 4 -220 8 -220 4 0 50 86 101 190 l94 190 34 0 34 0 97 -197 97 -198 3 228 2 227 50 0 50 0 0 -310 0 -310 -65 0 -65 0 -101 207 -101 208 -104 -208 -104 -207 -65 0 -65 0 0 310 0 310 50 0 50 0 0 -220z m1050 119 c0 -112 -11 -81 120 -319 26 -47 61 -111 79 -142 l31 -58 -54 0 -55 0 -82 145 c-46 80 -87 144 -92 142 -4 -1 -45 -65 -90 -142 l-83 -140 -52 -3 c-29 -2 -52 -1 -52 2 0 3 52 99 115 213 l115 208 0 97 0 98 50 0 50 0 0 -101z m830 31 l26 -65 156 -3 c117 -2 158 1 165 10 5 7 20 39 33 71 l22 57 54 0 c30 0 54 -3 54 -7 0 -5 -59 -144 -132 -310 l-133 -303 -55 0 -56 0 -71 163 c-39 89 -101 229 -137 310 l-65 148 56 -3 57 -3 26 -65z m2360 25 l0 -45 -175 0 -175 0 0 -85 0 -84 153 -3 152 -3 3 -47 3 -48 -155 0 -156 0 0 -85 0 -85 170 0 170 0 0 -45 0 -45 -225 0 -225 0 0 310 0 310 230 0 230 0 0 -45z m422 -217 l3 -263 98 -3 97 -3 0 -44 0 -45 -250 0 -250 0 0 45 0 45 100 0 100 0 0 265 0 265 50 0 50 0 2 -262z m-3042 -3 l0 -35 -110 0 -110 0 0 28 c0 16 3 32 7 35 3 4 53 7 110 7 l103 0 0 -35z"/>
</g>
<g id="layer103" fill="#eeb695" stroke="none">
<path d="M0 6000 l0 -6000 6000 0 6000 0 0 6000 0 6000 -6000 0 -6000 0 0 -6000z m1168 708 c19 -19 17 -911 -2 -927 -9 -8 -85 -11 -252 -9 l-239 3 -3 460 c-1 253 0 466 3 473 6 17 475 18 493 0z m642 -7 c6 -13 10 -215 10 -587 0 -514 -2 -569 -17 -586 -15 -16 -36 -18 -248 -18 -166 0 -234 3 -243 12 -17 17 -17 1169 0 1186 9 9 78 12 250 12 224 0 238 -1 248 -19z m640 0 c6 -13 10 -253 10 -710 0 -678 0 -691 -20 -711 -19 -19 -33 -20 -243 -20 -177 0 -227 3 -243 14 -18 14 -19 33 -19 714 0 578 2 702 14 715 12 15 42 17 252 17 225 0 239 -1 249 -19z m6043 -627 c75 -38 109 -113 87 -193 -16 -59 -71 -102 -171 -134 -104 -33 -147 -59 -155 -92 -21 -82 99 -108 232 -50 l51 23 21 -44 22 -44 -23 -15 c-12 -8 -42 -21 -67 -30 -215 -76 -416 52 -342 217 24 55 59 78 183 118 131 42 172 95 116 148 -50 47 -161 35 -260 -27 l-47 -31 -22 45 c-22 44 -22 45 -2 60 35 28 116 66 158 75 64 13 164 1 219 -26z m620 0 c75 -39 111 -117 88 -194 -17 -56 -74 -102 -161 -130 -132 -41 -170 -68 -170 -118 0 -61 125 -77 231 -29 l56 25 21 -44 22 -44 -23 -15 c-72 -47 -196 -65 -280 -41 -124 36 -175 129 -128 232 23 51 61 75 182 114 103 34 139 60 139 100 0 91 -166 102 -287 19 l-43 -30 -22 46 c-22 44 -22 45 -2 60 35 28 116 66 158 75 64 13 164 1 219 -26z m1845 4 c119 -57 137 -214 33 -284 -20 -13 -77 -37 -125 -54 -107 -36 -131 -51 -140 -85 -21 -83 101 -109 231 -50 l53 24 20 -46 c23 -53 25 -51 -60 -85 -82 -32 -198 -31 -264 2 -78 39 -113 108 -96 186 15 67 68 104 206 148 87 28 124 57 124 97 0 90 -144 102 -274 24 l-56 -34 -21 41 c-19 38 -20 41 -3 59 23 26 110 67 164 79 62 12 157 3 208 -22z m-8068 -103 l0 -125 140 0 140 0 0 -50 0 -50 -140 0 -140 0 0 -90 0 -90 155 0 155 0 0 -45 0 -45 -210 0 -210 0 0 310 0 310 55 0 55 0 0 -125z m570 -185 l0 -310 -50 0 -50 0 0 310 0 310 50 0 50 0 0 -310z m342 93 l3 -217 160 217 160 216 53 1 52 0 0 -310 0 -310 -50 0 -50 0 -2 221 -3 220 -164 -220 -163 -221 -54 0 -54 0 0 310 0 310 55 0 55 0 2 -217z m1077 182 c137 -76 193 -224 145 -385 -21 -72 -97 -149 -177 -178 -51 -19 -78 -22 -222 -22 l-165 0 0 311 0 311 183 -4 c180 -3 182 -3 236 -33z m731 -185 c0 -121 4 -220 8 -220 4 0 50 86 101 190 l94 190 34 0 34 0 97 -197 97 -198 3 228 2 227 50 0 50 0 0 -310 0 -310 -65 0 -65 0 -101 207 -101 208 -104 -208 -104 -207 -65 0 -65 0 0 310 0 310 50 0 50 0 0 -220z m1050 119 c0 -112 -11 -81 120 -319 26 -47 61 -111 79 -142 l31 -58 -54 0 -55 0 -82 145 c-46 80 -87 144 -92 142 -4 -1 -45 -65 -90 -142 l-83 -140 -52 -3 c-29 -2 -52 -1 -52 2 0 3 52 99 115 213 l115 208 0 97 0 98 50 0 50 0 0 -101z m830 31 l26 -65 156 -3 c117 -2 158 1 165 10 5 7 20 39 33 71 l22 57 54 0 c30 0 54 -3 54 -7 0 -5 -59 -144 -132 -310 l-133 -303 -55 0 -56 0 -71 163 c-39 89 -101 229 -137 310 l-65 148 56 -3 57 -3 26 -65z m2360 25 l0 -45 -175 0 -175 0 0 -85 0 -84 153 -3 152 -3 3 -47 3 -48 -155 0 -156 0 0 -85 0 -85 170 0 170 0 0 -45 0 -45 -225 0 -225 0 0 310 0 310 230 0 230 0 0 -45z m422 -217 l3 -263 98 -3 97 -3 0 -44 0 -45 -250 0 -250 0 0 45 0 45 100 0 100 0 0 265 0 265 50 0 50 0 2 -262z m-3042 -3 l0 -35 -110 0 -110 0 0 28 c0 16 3 32 7 35 3 4 53 7 110 7 l103 0 0 -35z"/>
</g>
<g id="layer104" fill="#ffffff" stroke="none">
<path d="M0 6000 l0 -6000 6000 0 6000 0 0 6000 0 6000 -6000 0 -6000 0 0 -6000z m1168 708 c19 -19 17 -911 -2 -927 -9 -8 -85 -11 -252 -9 l-239 3 -3 460 c-1 253 0 466 3 473 6 17 475 18 493 0z m642 -7 c6 -13 10 -215 10 -587 0 -514 -2 -569 -17 -586 -15 -16 -36 -18 -248 -18 -166 0 -234 3 -243 12 -17 17 -17 1169 0 1186 9 9 78 12 250 12 224 0 238 -1 248 -19z m640 0 c6 -13 10 -253 10 -710 0 -678 0 -691 -20 -711 -19 -19 -33 -20 -243 -20 -177 0 -227 3 -243 14 -18 14 -19 33 -19 714 0 578 2 702 14 715 12 15 42 17 252 17 225 0 239 -1 249 -19z m4263 -56 c13 -5 17 -19 17 -57 0 -42 -3 -49 -17 -46 -13 2 -19 14 -21 40 -3 29 -8 37 -28 42 -87 22 -153 -84 -90 -143 27 -25 79 -31 114 -12 15 8 23 7 31 -3 18 -22 -24 -46 -79 -46 -90 0 -154 73 -131 150 25 83 109 114 204 75z m4013 -16 c81 -76 29 -209 -82 -209 -85 0 -134 46 -134 124 0 36 6 53 28 77 46 52 137 56 188 8z m-7906 -3 l0 -34 57 -4 c68 -6 93 -30 93 -88 0 -58 -33 -80 -121 -80 l-69 0 0 120 c0 113 1 120 20 120 16 0 20 -7 20 -34z m388 22 c-3 -7 -27 -15 -54 -18 l-49 -5 -3 -102 c-2 -95 -4 -103 -22 -103 -19 0 -20 7 -20 120 l0 120 76 0 c56 0 75 -3 72 -12z m102 -13 c9 -23 14 -25 75 -25 61 0 65 2 71 25 4 18 13 25 30 25 28 0 32 15 -41 -153 -35 -78 -41 -88 -63 -85 -20 3 -31 21 -73 117 -27 63 -49 116 -49 118 0 2 9 3 20 3 13 0 24 -10 30 -25z m370 -74 l0 -100 37 -3 c27 -2 39 -8 41 -20 3 -16 -7 -18 -97 -18 -94 0 -101 1 -101 20 0 17 7 20 40 20 l40 0 0 100 c0 93 1 100 20 100 19 0 20 -7 20 -99z m178 74 c11 -23 17 -25 76 -25 60 0 64 2 70 25 5 18 13 25 31 25 l24 0 -36 -82 c-19 -46 -42 -100 -51 -121 -13 -31 -20 -37 -40 -35 -20 3 -31 19 -68 103 -24 55 -47 108 -50 117 -9 29 31 22 44 -7z m322 -25 l0 -50 55 0 c42 0 55 -3 55 -15 0 -12 -13 -15 -55 -15 l-55 0 0 -35 0 -34 57 -3 c46 -2 59 -7 61 -20 3 -16 -6 -18 -77 -18 l-81 0 0 120 c0 113 1 120 20 120 17 0 20 -7 20 -50z m386 34 c52 -34 69 -110 38 -164 -23 -39 -65 -60 -118 -60 -36 0 -52 6 -80 31 -61 53 -57 150 8 190 39 24 117 25 152 3z m184 -19 c0 -33 2 -35 34 -35 28 0 38 6 56 35 13 20 30 35 41 35 24 0 24 -5 -2 -42 l-21 -29 21 -23 c14 -15 21 -35 21 -63 0 -61 -32 -83 -121 -83 l-69 0 0 120 c0 113 1 120 20 120 16 0 20 -7 20 -35z m290 -52 l1 -88 40 78 c21 42 45 77 52 77 7 0 29 -33 49 -72 l37 -73 0 83 c1 75 3 82 21 82 19 0 20 -7 20 -120 l0 -120 -24 0 c-21 0 -30 12 -61 76 -41 88 -45 88 -90 -10 -26 -58 -33 -66 -57 -66 l-28 0 0 120 c0 113 1 120 20 120 18 0 20 -7 20 -87z m354 62 c6 -23 10 -25 71 -25 61 0 66 2 75 25 6 16 17 25 30 25 26 0 25 0 -34 -135 -37 -84 -48 -100 -68 -103 -20 -2 -27 4 -40 35 -9 21 -32 75 -51 121 l-36 82 23 0 c17 0 26 -7 30 -25z m597 -3 c59 -53 48 -161 -22 -197 -20 -11 -51 -15 -97 -13 l-67 3 -3 118 -3 117 81 0 c73 0 82 -2 111 -28z m309 13 c0 -11 -16 -15 -67 -17 l-68 -3 -3 -32 -3 -33 60 0 c54 0 61 -2 61 -20 0 -18 -7 -20 -60 -20 -60 0 -60 0 -60 -30 0 -29 0 -29 67 -32 55 -2 68 -6 71 -20 3 -16 -6 -18 -87 -18 l-91 0 0 120 0 120 90 0 c72 0 90 -3 90 -15z m710 0 c0 -12 -14 -15 -70 -15 l-70 0 0 -35 0 -35 60 0 c53 0 60 -2 60 -20 0 -18 -7 -20 -60 -20 -60 0 -60 0 -60 -30 0 -29 0 -29 67 -32 55 -2 68 -6 71 -20 3 -16 -6 -18 -87 -18 l-91 0 0 120 0 120 90 0 c73 0 90 -3 90 -15z m238 -1 c18 -12 22 -24 20 -52 -3 -34 -8 -39 -63 -67 -79 -39 -80 -60 -3 -59 39 1 59 -3 62 -12 7 -19 -25 -34 -76 -34 -59 0 -88 22 -88 65 0 38 18 54 82 74 38 12 56 37 39 54 -13 13 -64 11 -90 -2 -27 -15 -38 -14 -45 4 -14 37 117 61 162 29z m212 -84 l0 -100 35 0 c28 0 35 -4 35 -20 0 -19 -7 -20 -95 -20 -88 0 -95 1 -95 20 0 16 7 20 35 20 l35 0 0 100 0 100 25 0 25 0 0 -100z m190 -20 c0 -113 -1 -120 -20 -120 -19 0 -20 7 -20 120 0 113 1 120 20 120 19 0 20 -7 20 -120z m291 103 c31 -18 59 -67 59 -103 0 -30 -25 -75 -56 -99 -32 -25 -101 -28 -144 -6 -75 39 -79 160 -8 209 30 21 112 21 149 -1z m191 -64 l3 -81 59 81 c45 61 66 81 83 81 23 0 23 -1 23 -120 0 -113 -1 -120 -20 -120 -18 0 -20 7 -20 80 0 44 -3 80 -8 80 -4 0 -34 -36 -66 -81 -45 -63 -62 -79 -79 -77 -21 3 -22 9 -25 121 l-3 117 25 0 c25 0 25 -2 28 -81z m587 56 c40 -34 56 -84 41 -130 -6 -19 -25 -46 -41 -60 -27 -22 -40 -25 -105 -25 l-74 0 0 120 0 120 74 0 c65 0 78 -3 105 -25z m311 10 c0 -11 -16 -15 -67 -17 l-68 -3 -3 -32 -3 -33 60 0 c54 0 61 -2 61 -20 0 -18 -7 -20 -60 -20 -60 0 -60 0 -60 -30 0 -29 0 -29 67 -32 55 -2 68 -6 71 -20 3 -16 -6 -18 -87 -18 l-91 0 0 120 0 120 90 0 c72 0 90 -3 90 -15z m252 -10 c10 -23 17 -25 73 -25 56 0 63 2 73 25 7 15 20 25 32 25 11 0 20 -2 20 -5 0 -3 -23 -57 -51 -120 -43 -97 -55 -115 -74 -115 -19 0 -30 17 -70 108 -26 59 -49 113 -52 120 -10 25 37 12 49 -13z m456 9 c18 -12 20 -19 12 -29 -9 -11 -17 -11 -46 1 -32 14 -39 13 -72 -3 -67 -33 -65 -121 3 -149 24 -10 38 -9 70 2 30 10 41 10 47 1 14 -22 -30 -47 -83 -47 -116 0 -171 133 -87 212 25 23 39 28 82 28 31 0 61 -6 74 -16z m202 -83 l0 -100 37 -3 c27 -2 39 -8 41 -20 3 -16 -7 -18 -98 -18 -91 0 -101 2 -98 18 2 12 14 18 41 20 l37 3 0 100 c0 92 1 99 20 99 19 0 20 -7 20 -99z m200 -22 c0 -119 0 -120 -22 -117 -22 3 -23 7 -26 121 l-3 117 26 0 25 0 0 -121z m260 9 c25 -62 47 -116 49 -121 2 -5 -7 -7 -20 -5 -19 2 -29 20 -60 98 l-36 95 -15 -35 c-8 -19 -25 -63 -37 -97 -17 -47 -28 -63 -42 -63 -11 0 -19 3 -19 8 0 4 19 58 42 119 39 102 45 113 68 113 23 0 29 -11 70 -112z m598 96 c18 -12 22 -24 20 -52 -3 -34 -8 -39 -63 -67 -79 -39 -80 -60 -3 -59 39 1 59 -3 62 -12 14 -36 -117 -49 -149 -14 -20 22 -23 63 -5 84 6 8 33 22 60 31 50 17 64 32 50 55 -10 16 -66 16 -97 -1 -19 -10 -26 -10 -36 0 -9 10 -7 16 12 32 30 24 116 26 149 3z m-3094 -273 c16 -17 16 -19 0 -25 -17 -6 -54 18 -54 36 0 15 37 8 54 -11z m589 -297 c75 -38 109 -113 87 -193 -16 -59 -71 -102 -171 -134 -104 -33 -147 -59 -155 -92 -21 -82 99 -108 232 -50 l51 23 21 -44 22 -44 -23 -15 c-12 -8 -42 -21 -67 -30 -215 -76 -416 52 -342 217 24 55 59 78 183 118 131 42 172 95 116 148 -50 47 -161 35 -260 -27 l-47 -31 -22 45 c-22 44 -22 45 -2 60 35 28 116 66 158 75 64 13 164 1 219 -26z m620 0 c75 -39 111 -117 88 -194 -17 -56 -74 -102 -161 -130 -132 -41 -170 -68 -170 -118 0 -61 125 -77 231 -29 l56 25 21 -44 22 -44 -23 -15 c-72 -47 -196 -65 -280 -41 -124 36 -175 129 -128 232 23 51 61 75 182 114 103 34 139 60 139 100 0 91 -166 102 -287 19 l-43 -30 -22 46 c-22 44 -22 45 -2 60 35 28 116 66 158 75 64 13 164 1 219 -26z m1845 4 c119 -57 137 -214 33 -284 -20 -13 -77 -37 -125 -54 -107 -36 -131 -51 -140 -85 -21 -83 101 -109 231 -50 l53 24 20 -46 c23 -53 25 -51 -60 -85 -82 -32 -198 -31 -264 2 -78 39 -113 108 -96 186 15 67 68 104 206 148 87 28 124 57 124 97 0 90 -144 102 -274 24 l-56 -34 -21 41 c-19 38 -20 41 -3 59 23 26 110 67 164 79 62 12 157 3 208 -22z m-8068 -103 l0 -125 140 0 140 0 0 -50 0 -50 -140 0 -140 0 0 -90 0 -90 155 0 155 0 0 -45 0 -45 -210 0 -210 0 0 310 0 310 55 0 55 0 0 -125z m570 -185 l0 -310 -50 0 -50 0 0 310 0 310 50 0 50 0 0 -310z m342 93 l3 -217 160 217 160 216 53 1 52 0 0 -310 0 -310 -50 0 -50 0 -2 221 -3 220 -164 -220 -163 -221 -54 0 -54 0 0 310 0 310 55 0 55 0 2 -217z m1077 182 c137 -76 193 -224 145 -385 -21 -72 -97 -149 -177 -178 -51 -19 -78 -22 -222 -22 l-165 0 0 311 0 311 183 -4 c180 -3 182 -3 236 -33z m731 -185 c0 -121 4 -220 8 -220 4 0 50 86 101 190 l94 190 34 0 34 0 97 -197 97 -198 3 228 2 227 50 0 50 0 0 -310 0 -310 -65 0 -65 0 -101 207 -101 208 -104 -208 -104 -207 -65 0 -65 0 0 310 0 310 50 0 50 0 0 -220z m1050 119 c0 -112 -11 -81 120 -319 26 -47 61 -111 79 -142 l31 -58 -54 0 -55 0 -82 145 c-46 80 -87 144 -92 142 -4 -1 -45 -65 -90 -142 l-83 -140 -52 -3 c-29 -2 -52 -1 -52 2 0 3 52 99 115 213 l115 208 0 97 0 98 50 0 50 0 0 -101z m830 31 l26 -65 156 -3 c117 -2 158 1 165 10 5 7 20 39 33 71 l22 57 54 0 c30 0 54 -3 54 -7 0 -5 -59 -144 -132 -310 l-133 -303 -55 0 -56 0 -71 163 c-39 89 -101 229 -137 310 l-65 148 56 -3 57 -3 26 -65z m2360 25 l0 -45 -175 0 -175 0 0 -85 0 -84 153 -3 152 -3 3 -47 3 -48 -155 0 -156 0 0 -85 0 -85 170 0 170 0 0 -45 0 -45 -225 0 -225 0 0 310 0 310 230 0 230 0 0 -45z m422 -217 l3 -263 98 -3 97 -3 0 -44 0 -45 -250 0 -250 0 0 45 0 45 100 0 100 0 0 265 0 265 50 0 50 0 2 -262z m-3042 -3 l0 -35 -110 0 -110 0 0 28 c0 16 3 32 7 35 3 4 53 7 110 7 l103 0 0 -35z"/>
<path d="M770 6245 l0 -376 153 3 152 3 0 370 0 370 -152 3 -153 3 0 -376z"/>
<path d="M1407 6613 c-4 -3 -7 -228 -7 -500 l0 -493 155 0 155 0 0 500 0 500 -148 0 c-82 0 -152 -3 -155 -7z"/>
<path d="M2040 5995 l0 -625 155 0 155 0 0 625 0 625 -155 0 -155 0 0 -625z"/>
<path d="M10604 6620 c-53 -21 -69 -88 -33 -134 16 -21 29 -26 63 -26 54 0 86 30 86 81 -1 65 -56 103 -116 79z"/>
<path d="M2820 6504 l0 -45 53 3 c49 3 52 5 55 31 5 41 -14 57 -64 57 l-44 0 0 -46z"/>
<path d="M3340 6566 c0 -9 42 -97 45 -94 2 2 13 25 24 51 l20 47 -44 0 c-25 0 -45 -2 -45 -4z"/>
<path d="M3896 6548 c3 -13 13 -36 21 -52 l15 -29 19 43 c10 23 19 46 19 51 0 5 -18 9 -41 9 -37 0 -40 -2 -33 -22z"/>
<path d="M4453 6620 c-29 -12 -56 -66 -49 -96 10 -40 42 -64 85 -64 49 0 80 25 87 71 5 28 1 41 -17 62 -26 30 -72 41 -106 27z"/>
<path d="M4750 6504 l0 -45 53 3 c51 3 52 4 55 37 4 41 -8 51 -65 51 l-43 0 0 -46z"/>
<path d="M5442 6523 c11 -27 22 -50 24 -52 3 -3 44 85 44 95 0 2 -20 4 -44 4 l-45 0 21 -47z"/>
<path d="M5850 6546 l0 -86 49 0 c42 0 53 4 70 26 47 60 10 132 -72 141 l-47 6 0 -87z"/>
<path d="M7834 6620 c-85 -34 -61 -160 31 -160 49 0 71 13 84 51 14 41 -8 95 -44 109 -31 12 -43 12 -71 0z"/>
<path d="M8587 6623 c-4 -3 -7 -42 -7 -85 l0 -78 48 0 c38 0 53 5 70 23 23 25 29 75 12 107 -15 28 -104 53 -123 33z"/>
<path d="M9324 6535 c29 -69 33 -73 45 -42 6 15 15 38 21 52 9 24 8 25 -35 25 l-45 0 14 -35z"/>
<path d="M4570 5790 l0 -220 83 0 c99 1 147 11 191 41 46 31 75 77 87 140 21 100 -20 186 -110 232 -49 24 -65 27 -153 27 l-98 0 0 -220z"/>
<path d="M7563 5858 c37 -96 112 -257 118 -251 7 8 109 248 109 258 0 3 -52 5 -116 5 -89 0 -115 -3 -111 -12z"/>
</g>


</svg>