<!DOCTYPE svg PUBLIC "-//W3C//DTD SVG 20010904//EN" "http://www.w3.org/TR/2001/REC-SVG-20010904/DTD/svg10.dtd">
<svg version="1.0" xmlns="http://www.w3.org/2000/svg" width="1200px" height="1200px" viewBox="0 0 12000 12000" preserveAspectRatio="xMidYMid meet">
<g id="layer101" fill="#ffde59" stroke="none">
 <path d="M0 6000 l0 -6000 6000 0 6000 0 0 6000 0 6000 -6000 0 -6000 0 0 -6000z"/>
 </g>
<g id="layer102" fill="#ffffff" stroke="none">
 <path d="M0 6000 l0 -6000 6000 0 6000 0 0 6000 0 6000 -6000 0 -6000 0 0 -6000z m4434 2816 c46 -19 101 -79 114 -125 17 -56 17 -3367 0 -3423 -15 -49 -79 -115 -127 -128 -24 -8 -310 -10 -886 -8 l-850 3 -37 25 c-20 14 -48 43 -62 64 l-26 40 0 1713 c0 1688 0 1714 20 1753 20 38 57 72 101 89 15 6 366 10 872 10 699 1 853 -1 881 -13z m2446 -8 c24 -13 58 -40 74 -61 l31 -39 0 -2222 0 -2223 -28 -40 c-15 -22 -46 -50 -70 -64 l-42 -24 -845 0 c-465 0 -857 3 -872 8 -38 10 -95 63 -119 108 -19 37 -19 80 -19 2234 0 2139 0 2197 19 2233 22 43 53 74 96 96 26 14 129 16 880 16 l851 0 44 -22z m2446 1 c50 -24 87 -69 103 -125 9 -29 11 -728 9 -2706 l-3 -2666 -30 -44 c-17 -23 -49 -53 -70 -65 l-40 -23 -860 0 -860 0 -37 23 c-45 27 -85 78 -98 127 -13 45 -13 5289 -1 5343 13 56 57 113 104 136 41 21 54 21 891 21 836 0 850 0 892 -21z"/>
 <path d="M2960 6980 l0 -1440 595 0 595 0 0 1440 0 1440 -595 0 -595 0 0 -1440z"/>
 <path d="M5400 6480 l0 -1940 590 0 590 0 0 1940 0 1940 -590 0 -590 0 0 -1940z"/>
 <path d="M7845 8408 c-3 -7 -4 -1095 -3 -2418 l3 -2405 593 -3 592 -2 0 2420 0 2420 -590 0 c-463 0 -592 -3 -595 -12z"/>
 </g>

</svg>